# Blender 3.5.0
# www.blender.org
mtllib arrowup.mtl
o 平面
v 0.427651 0.000000 0.229215
v -0.427651 0.000000 0.229215
v 0.000000 0.000000 1.000000
v -0.000000 0.000000 -1.000000
v 1.000000 0.000000 0.229215
v -1.000000 0.000000 0.229215
v 0.000000 0.000000 0.229215
v 0.427651 0.000000 -1.000000
v -0.427651 0.000000 -1.000000
vn -0.0000 1.0000 -0.0000
vt 0.250000 0.500000
vt 0.750000 0.500000
vt 0.750000 1.000000
vt 0.250000 1.000000
vt 0.000000 1.000000
vt 0.500000 1.000000
vt 0.500000 0.000000
vt 0.000000 0.500000
vt 1.000000 0.500000
vt 0.500000 0.500000
vt 0.250000 0.000000
vt 0.750000 0.000000
s 0
usemtl マテリアル.001
f 2/2/1 6/9/1 3/3/1
f 1/1/1 7/10/1 3/4/1
f 4/7/1 1/1/1 8/11/1
f 5/8/1 1/1/1 3/5/1
f 9/12/1 7/10/1 4/7/1
f 7/10/1 2/2/1 3/6/1
f 4/7/1 7/10/1 1/1/1
f 9/12/1 2/2/1 7/10/1
